<?xml version="1.0" encoding="UTF-8"?>
<!-- Generated by Pixelmator Pro 2.4.4 -->
<svg width="2400" height="800" viewBox="0 0 2400 800" xmlns="http://www.w3.org/2000/svg" xmlns:xlink="http://www.w3.org/1999/xlink">
    <g id="Gradient-copy">
        <g id="Text">
            <path id="Path-copy-8" fill="#101010" stroke="none" d="M 807.61615 362.059052 L 764.995239 362.059052 C 763.779541 355.063202 761.538391 348.865417 758.270996 343.46637 C 755.004333 337.990814 750.939636 333.35199 746.077576 329.549774 C 741.215515 325.747528 735.669067 322.895752 729.438965 320.994965 C 723.2854 319.017731 716.637695 318.028748 709.495789 318.028748 C 696.808228 318.028748 685.564453 321.223083 675.763794 327.610413 C 665.963196 333.922607 658.289978 343.199677 652.74353 355.443634 C 647.197815 367.610413 644.424561 382.477386 644.424561 400.043915 C 644.424561 417.915039 647.197815 432.971527 652.74353 445.214813 C 658.365784 457.382294 666.03894 466.583527 675.763794 472.819183 C 685.564453 478.979095 696.770325 482.059052 709.38208 482.059052 C 716.371643 482.059052 722.90564 481.146606 728.983459 479.321625 C 735.136963 477.420197 740.645569 474.644867 745.507629 470.994263 C 750.446228 467.344391 754.586731 462.857819 757.929138 457.534607 C 761.348206 452.211395 763.703003 446.127289 764.995239 439.283752 L 807.61615 439.511871 C 806.020691 450.614532 802.563782 461.032166 797.245483 470.766144 C 792.003784 480.500122 785.127869 489.093536 776.618774 496.545624 C 768.109558 503.921906 758.157288 509.701355 746.76123 513.884033 C 735.365112 517.990845 722.715454 520.043884 708.812195 520.043884 C 688.299744 520.043884 669.98999 515.290649 653.883423 505.785461 C 637.776855 496.279602 625.089294 482.553223 615.820618 464.606964 C 606.552063 446.660034 601.917358 425.139008 601.917358 400.043915 C 601.917358 374.872986 606.589966 353.351929 615.934387 335.481537 C 625.27948 317.534607 638.005005 303.808197 654.111572 294.30307 C 670.218079 284.79718 688.451355 280.043884 708.812195 280.043884 C 721.803711 280.043884 733.883423 281.869568 745.052063 285.519409 C 756.220032 289.169373 766.172302 294.531189 774.909607 301.602844 C 783.646179 308.599365 790.825928 317.19278 796.44812 327.382294 C 802.14624 337.496704 805.86908 349.055603 807.61615 362.059052 Z"/>
            <path id="Path-copy-7" fill="#101010" stroke="none" d="M 1048.466187 400.043915 C 1048.466187 425.214783 1043.756348 446.773743 1034.329834 464.720673 C 1024.987549 482.591095 1012.226868 496.279602 996.041138 505.785461 C 979.932373 515.290649 961.661865 520.043884 941.229492 520.043884 C 920.7901 520.043884 902.477478 515.290649 886.298645 505.785461 C 870.190002 496.203796 857.429443 482.477417 848.009888 464.606964 C 838.660583 446.660034 833.992859 425.139008 833.992859 400.043915 C 833.992859 374.872986 838.660583 353.351929 848.009888 335.481537 C 857.429443 317.534607 870.190002 303.808197 886.298645 294.30307 C 902.477478 284.79718 920.7901 280.043884 941.229492 280.043884 C 961.661865 280.043884 979.932373 284.79718 996.041138 294.30307 C 1012.226868 303.808197 1024.987549 317.534607 1034.329834 335.481537 C 1043.756348 353.351929 1048.466187 374.872986 1048.466187 400.043915 Z M 1005.958923 400.043915 C 1005.958923 382.325073 1003.186462 367.382263 997.634338 355.215515 C 992.166565 342.971558 984.57196 333.732422 974.843567 327.496704 C 965.122253 321.184479 953.912903 318.028748 941.229492 318.028748 C 928.539124 318.028748 917.329712 321.184479 907.608459 327.496704 C 897.887085 333.732422 890.250366 342.971558 884.705322 355.215515 C 879.23053 367.382263 876.500122 382.325073 876.500122 400.043915 C 876.500122 417.762726 879.23053 432.743408 884.705322 444.986694 C 890.250366 457.154175 897.887085 466.394012 907.608459 472.705505 C 917.329712 478.941223 928.539124 482.059052 941.229492 482.059052 C 953.912903 482.059052 965.122253 478.941223 974.843567 472.705505 C 984.57196 466.394012 992.166565 457.154175 997.634338 444.986694 C 1003.186462 432.743408 1005.958923 417.762726 1005.958923 400.043915 Z"/>
            <path id="Path-copy-6" fill="#101010" stroke="none" d="M 1161.1073 516.85022 L 1082.01709 516.85022 L 1082.01709 283.238281 L 1162.700684 283.238281 C 1185.870483 283.238281 1205.776489 287.915039 1222.418579 297.268616 C 1239.130859 306.546326 1251.968628 319.892273 1260.931885 337.306519 C 1269.9021 354.720703 1274.380249 375.557343 1274.380249 399.815765 C 1274.380249 424.150726 1269.859985 445.063171 1260.819702 462.553192 C 1251.856323 480.043915 1238.89917 493.465668 1221.962402 502.819214 C 1205.095703 512.172729 1184.810669 516.85022 1161.1073 516.85022 Z M 1124.299683 480.2341 L 1159.057861 480.2341 C 1175.313843 480.2341 1188.874634 477.267853 1199.740112 471.336823 C 1210.605469 465.329224 1218.768677 456.394012 1224.23645 444.530457 C 1229.711182 432.591797 1232.44165 417.68692 1232.44165 399.815765 C 1232.44165 381.945343 1229.711182 367.116272 1224.23645 355.329224 C 1218.768677 343.46637 1210.675659 334.606934 1199.964722 328.751678 C 1189.330933 322.819916 1176.107056 319.85437 1160.307129 319.85437 L 1124.299683 319.85437 L 1124.299683 480.2341 Z"/>
            <path id="Path-copy-5" fill="#101010" stroke="none" d="M 1350.417358 283.238281 L 1350.417358 516.85022 L 1308.134766 516.85022 L 1308.134766 283.238281 L 1350.417358 283.238281 Z"/>
            <path id="Path-copy-4" fill="#101010" stroke="none" d="M 1581.574829 283.238281 L 1581.574829 516.85022 L 1543.966919 516.85022 L 1434 357.724823 L 1432.062622 357.724823 L 1432.062622 516.85022 L 1389.780029 516.85022 L 1389.780029 283.238281 L 1427.612671 283.238281 L 1537.474365 442.477386 L 1539.523926 442.477386 L 1539.523926 283.238281 L 1581.574829 283.238281 Z"/>
            <path id="Path-copy-3" fill="#101010" stroke="none" d="M 1777.581055 357.838531 C 1775.678833 351.679352 1773.060791 346.165924 1769.712769 341.298889 C 1766.448853 336.356079 1762.497192 332.13559 1757.864502 328.637299 C 1753.309204 325.138977 1748.06604 322.51532 1742.13501 320.766876 C 1736.210938 318.941223 1729.753418 318.028748 1722.762451 318.028748 C 1710.22644 318.028748 1699.059204 321.184479 1689.26062 327.496704 C 1679.462036 333.808197 1671.748291 343.085907 1666.125977 355.329224 C 1660.580933 367.496704 1657.808472 382.325073 1657.808472 399.815765 C 1657.808472 417.458099 1660.580933 432.401611 1666.125977 444.644867 C 1671.671021 456.888123 1679.384888 466.203796 1689.26062 472.591125 C 1699.136353 478.90332 1710.605469 482.059052 1723.674927 482.059052 C 1735.530029 482.059052 1745.78479 479.777863 1754.446289 475.214813 C 1763.184937 470.652466 1769.90918 464.188629 1774.619019 455.823364 C 1779.328735 447.382294 1781.680176 437.496704 1781.680176 426.165894 L 1791.254028 427.648315 L 1727.893311 427.648315 L 1727.893311 394.569031 L 1822.593994 394.569031 L 1822.593994 422.6297 C 1822.593994 442.6297 1818.340332 459.929474 1809.833374 474.530457 C 1801.319458 489.131439 1789.618652 500.385712 1774.731201 508.294769 C 1759.836914 516.127319 1742.745605 520.043884 1723.450195 520.043884 C 1701.95105 520.043884 1683.069946 515.214783 1666.806885 505.557312 C 1650.62793 495.823364 1637.979614 482.021149 1628.862061 464.150024 C 1619.821533 446.203796 1615.30127 424.910889 1615.30127 400.272003 C 1615.30127 381.412598 1617.961426 364.569061 1623.274902 349.73996 C 1628.672485 334.910889 1636.189941 322.325775 1645.841064 311.983246 C 1655.492188 301.564941 1666.806885 293.656586 1679.799072 288.256897 C 1692.791138 282.781982 1706.920532 280.043884 1722.193848 280.043884 C 1735.108765 280.043884 1747.153564 281.945374 1758.320801 285.747498 C 1769.488037 289.473938 1779.406006 294.79715 1788.060425 301.717255 C 1796.799072 308.637299 1803.979614 316.85025 1809.601807 326.35611 C 1815.223877 335.861969 1818.909058 346.35611 1820.656738 357.838531 L 1777.581055 357.838531 Z"/>
            <path id="Path-copy-2" fill="#101010" stroke="none" d="M 1857.057373 516.85022 L 1857.057373 283.238281 L 2006.576538 283.238281 L 2006.576538 318.713104 L 1899.339966 318.713104 L 1899.339966 382.13559 L 1996.321777 382.13559 L 1996.321777 417.610413 L 1899.339966 417.610413 L 1899.339966 516.85022 L 1857.057373 516.85022 Z"/>
            <path id="Path-copy" fill="#101010" stroke="none" d="M 2022.720337 283.238281 L 2070.470703 283.238281 L 2127.563477 386.584198 L 2129.844727 386.584198 L 2186.937256 283.238281 L 2234.687744 283.238281 L 2149.785645 429.702057 L 2149.785645 516.85022 L 2107.622314 516.85022 L 2107.622314 429.702057 L 2022.720337 283.238281 Z"/>
        </g>
        <g id="Logo-Web3">
            <linearGradient id="linearGradient1" x1="252.805061" y1="480.508298" x2="394.217756" y2="587.113211" gradientUnits="userSpaceOnUse">
                <stop offset="1e-05" stop-color="#43d8bf" stop-opacity="1"/>
                <stop offset="1" stop-color="#91ffee" stop-opacity="1"/>
            </linearGradient>
            <path id="Path" fill="url(#linearGradient1)" fill-rule="evenodd" stroke="none" d="M 163.843567 514.94165 L 362.839661 630.047729 L 505.787903 545.202148 L 315.33548 400.601471 L 163.843567 514.94165 Z"/>
            <linearGradient id="linearGradient2" x1="231.412786" y1="461.477661" x2="265.098508" y2="517.454181" gradientUnits="userSpaceOnUse">
                <stop offset="1e-05" stop-color="#000000" stop-opacity="1"/>
                <stop offset="1" stop-color="#000000" stop-opacity="0"/>
            </linearGradient>
            <path id="path1" fill="url(#linearGradient2)" fill-rule="evenodd" stroke="none" opacity="0.618397" d="M 163.843567 514.94165 L 279.856842 581.89502 L 423.561707 483.224335 L 315.33548 400.601471 L 163.843567 514.94165 Z"/>
            <linearGradient id="linearGradient3" x1="438.272243" y1="228.535653" x2="164.386379" y2="428.881803" gradientUnits="userSpaceOnUse">
                <stop offset="1e-05" stop-color="#43d8bf" stop-opacity="1"/>
                <stop offset="1" stop-color="#4b84e2" stop-opacity="1"/>
                <stop offset="1" stop-color="#4b84e2" stop-opacity="1"/>
            </linearGradient>
            <path id="path2" fill="url(#linearGradient3)" fill-rule="evenodd" stroke="none" d="M 163.843567 286.253235 L 360.948059 171 L 505.787903 256.957581 L 163.843567 514.933594 L 163.843567 286.253235 Z"/>
        </g>
    </g>
</svg>
