<?xml version="1.0" encoding="UTF-8"?>
<!-- Generated by Pixelmator Pro 2.4.4 -->
<svg width="2400" height="800" viewBox="0 0 2400 800" xmlns="http://www.w3.org/2000/svg" xmlns:xlink="http://www.w3.org/1999/xlink">
    <g id="White-copy">
        <path id="Path" fill="#ffffff" fill-rule="evenodd" stroke="none" d="M 324.221863 409.023743 L 177.532745 520.756958 L 360.139526 625.740601 L 501.254761 542.608765 L 324.221863 409.023743 Z"/>
        <path id="path1" fill="#ffffff" fill-rule="evenodd" stroke="none" d="M 163.832642 288.664429 L 358.40979 175.74054 L 501.340942 260.048828 L 163.764221 512.841064 L 163.832642 288.664429 Z"/>
        <g id="Text">
            <path id="Path-copy-8" fill="#ffffff" stroke="none" d="M 807.61615 363.059052 L 764.995239 363.059052 C 763.779541 356.063202 761.538391 349.865417 758.270996 344.46637 C 755.004333 338.990814 750.939636 334.35199 746.077576 330.549774 C 741.215515 326.747528 735.669067 323.895752 729.438965 321.994965 C 723.2854 320.017731 716.637695 319.028748 709.495789 319.028748 C 696.808228 319.028748 685.564453 322.223083 675.763794 328.610413 C 665.963196 334.922607 658.289978 344.199677 652.74353 356.443634 C 647.197815 368.610413 644.424561 383.477386 644.424561 401.043915 C 644.424561 418.915039 647.197815 433.971527 652.74353 446.214813 C 658.365784 458.382294 666.03894 467.583527 675.763794 473.819183 C 685.564453 479.979095 696.770325 483.059052 709.38208 483.059052 C 716.371643 483.059052 722.90564 482.146606 728.983459 480.321625 C 735.136963 478.420197 740.645569 475.644867 745.507629 471.994263 C 750.446228 468.344391 754.586731 463.857819 757.929138 458.534607 C 761.348206 453.211395 763.703003 447.127289 764.995239 440.283752 L 807.61615 440.511871 C 806.020691 451.614532 802.563782 462.032166 797.245483 471.766144 C 792.003784 481.500122 785.127869 490.093536 776.618774 497.545624 C 768.109558 504.921906 758.157288 510.701355 746.76123 514.884033 C 735.365112 518.990845 722.715454 521.043884 708.812195 521.043884 C 688.299744 521.043884 669.98999 516.290649 653.883423 506.785461 C 637.776855 497.279602 625.089294 483.553223 615.820618 465.606964 C 606.552063 447.660034 601.917358 426.139008 601.917358 401.043915 C 601.917358 375.872986 606.589966 354.351929 615.934387 336.481537 C 625.27948 318.534607 638.005005 304.808197 654.111572 295.30307 C 670.218079 285.79718 688.451355 281.043884 708.812195 281.043884 C 721.803711 281.043884 733.883423 282.869568 745.052063 286.519409 C 756.220032 290.169373 766.172302 295.531189 774.909607 302.602844 C 783.646179 309.599365 790.825928 318.19278 796.44812 328.382294 C 802.14624 338.496704 805.86908 350.055603 807.61615 363.059052 Z"/>
            <path id="Path-copy-7" fill="#ffffff" stroke="none" d="M 1048.466187 401.043915 C 1048.466187 426.214783 1043.756348 447.773743 1034.329834 465.720673 C 1024.987549 483.591095 1012.226868 497.279602 996.041138 506.785461 C 979.932373 516.290649 961.661865 521.043884 941.229492 521.043884 C 920.7901 521.043884 902.477478 516.290649 886.298645 506.785461 C 870.190002 497.203796 857.429443 483.477417 848.009888 465.606964 C 838.660583 447.660034 833.992859 426.139008 833.992859 401.043915 C 833.992859 375.872986 838.660583 354.351929 848.009888 336.481537 C 857.429443 318.534607 870.190002 304.808197 886.298645 295.30307 C 902.477478 285.79718 920.7901 281.043884 941.229492 281.043884 C 961.661865 281.043884 979.932373 285.79718 996.041138 295.30307 C 1012.226868 304.808197 1024.987549 318.534607 1034.329834 336.481537 C 1043.756348 354.351929 1048.466187 375.872986 1048.466187 401.043915 Z M 1005.958923 401.043915 C 1005.958923 383.325073 1003.186462 368.382263 997.634338 356.215515 C 992.166565 343.971558 984.57196 334.732422 974.843567 328.496704 C 965.122253 322.184479 953.912903 319.028748 941.229492 319.028748 C 928.539124 319.028748 917.329712 322.184479 907.608459 328.496704 C 897.887085 334.732422 890.250366 343.971558 884.705322 356.215515 C 879.23053 368.382263 876.500122 383.325073 876.500122 401.043915 C 876.500122 418.762726 879.23053 433.743408 884.705322 445.986694 C 890.250366 458.154175 897.887085 467.394012 907.608459 473.705505 C 917.329712 479.941223 928.539124 483.059052 941.229492 483.059052 C 953.912903 483.059052 965.122253 479.941223 974.843567 473.705505 C 984.57196 467.394012 992.166565 458.154175 997.634338 445.986694 C 1003.186462 433.743408 1005.958923 418.762726 1005.958923 401.043915 Z"/>
            <path id="Path-copy-6" fill="#ffffff" stroke="none" d="M 1161.1073 517.85022 L 1082.01709 517.85022 L 1082.01709 284.238281 L 1162.700684 284.238281 C 1185.870483 284.238281 1205.776489 288.915039 1222.418579 298.268616 C 1239.130859 307.546326 1251.968628 320.892273 1260.931885 338.306519 C 1269.9021 355.720703 1274.380249 376.557343 1274.380249 400.815765 C 1274.380249 425.150726 1269.859985 446.063171 1260.819702 463.553192 C 1251.856323 481.043915 1238.89917 494.465668 1221.962402 503.819214 C 1205.095703 513.172729 1184.810669 517.85022 1161.1073 517.85022 Z M 1124.299683 481.2341 L 1159.057861 481.2341 C 1175.313843 481.2341 1188.874634 478.267853 1199.740112 472.336823 C 1210.605469 466.329224 1218.768677 457.394012 1224.23645 445.530457 C 1229.711182 433.591797 1232.44165 418.68692 1232.44165 400.815765 C 1232.44165 382.945343 1229.711182 368.116272 1224.23645 356.329224 C 1218.768677 344.46637 1210.675659 335.606934 1199.964722 329.751678 C 1189.330933 323.819916 1176.107056 320.85437 1160.307129 320.85437 L 1124.299683 320.85437 L 1124.299683 481.2341 Z"/>
            <path id="Path-copy-5" fill="#ffffff" stroke="none" d="M 1350.417358 284.238281 L 1350.417358 517.85022 L 1308.134766 517.85022 L 1308.134766 284.238281 L 1350.417358 284.238281 Z"/>
            <path id="Path-copy-4" fill="#ffffff" stroke="none" d="M 1581.574829 284.238281 L 1581.574829 517.85022 L 1543.966919 517.85022 L 1434 358.724823 L 1432.062622 358.724823 L 1432.062622 517.85022 L 1389.780029 517.85022 L 1389.780029 284.238281 L 1427.612671 284.238281 L 1537.474365 443.477386 L 1539.523926 443.477386 L 1539.523926 284.238281 L 1581.574829 284.238281 Z"/>
            <path id="Path-copy-3" fill="#ffffff" stroke="none" d="M 1777.581055 358.838531 C 1775.678833 352.679352 1773.060791 347.165924 1769.712769 342.298889 C 1766.448853 337.356079 1762.497192 333.13559 1757.864502 329.637299 C 1753.309204 326.138977 1748.06604 323.51532 1742.13501 321.766876 C 1736.210938 319.941223 1729.753418 319.028748 1722.762451 319.028748 C 1710.22644 319.028748 1699.059204 322.184479 1689.26062 328.496704 C 1679.462036 334.808197 1671.748291 344.085907 1666.125977 356.329224 C 1660.580933 368.496704 1657.808472 383.325073 1657.808472 400.815765 C 1657.808472 418.458099 1660.580933 433.401611 1666.125977 445.644867 C 1671.671021 457.888123 1679.384888 467.203796 1689.26062 473.591125 C 1699.136353 479.90332 1710.605469 483.059052 1723.674927 483.059052 C 1735.530029 483.059052 1745.78479 480.777863 1754.446289 476.214813 C 1763.184937 471.652466 1769.90918 465.188629 1774.619019 456.823364 C 1779.328735 448.382294 1781.680176 438.496704 1781.680176 427.165894 L 1791.254028 428.648315 L 1727.893311 428.648315 L 1727.893311 395.569031 L 1822.593994 395.569031 L 1822.593994 423.6297 C 1822.593994 443.6297 1818.340332 460.929474 1809.833374 475.530457 C 1801.319458 490.131439 1789.618652 501.385712 1774.731201 509.294769 C 1759.836914 517.127319 1742.745605 521.043884 1723.450195 521.043884 C 1701.95105 521.043884 1683.069946 516.214783 1666.806885 506.557312 C 1650.62793 496.823364 1637.979614 483.021149 1628.862061 465.150024 C 1619.821533 447.203796 1615.30127 425.910889 1615.30127 401.272003 C 1615.30127 382.412598 1617.961426 365.569061 1623.274902 350.73996 C 1628.672485 335.910889 1636.189941 323.325775 1645.841064 312.983246 C 1655.492188 302.564941 1666.806885 294.656586 1679.799072 289.256897 C 1692.791138 283.781982 1706.920532 281.043884 1722.193848 281.043884 C 1735.108765 281.043884 1747.153564 282.945374 1758.320801 286.747498 C 1769.488037 290.473938 1779.406006 295.79715 1788.060425 302.717255 C 1796.799072 309.637299 1803.979614 317.85025 1809.601807 327.35611 C 1815.223877 336.861969 1818.909058 347.35611 1820.656738 358.838531 L 1777.581055 358.838531 Z"/>
            <path id="Path-copy-2" fill="#ffffff" stroke="none" d="M 1857.057373 517.85022 L 1857.057373 284.238281 L 2006.576538 284.238281 L 2006.576538 319.713104 L 1899.339966 319.713104 L 1899.339966 383.13559 L 1996.321777 383.13559 L 1996.321777 418.610413 L 1899.339966 418.610413 L 1899.339966 517.85022 L 1857.057373 517.85022 Z"/>
            <path id="Path-copy" fill="#ffffff" stroke="none" d="M 2022.720337 284.238281 L 2070.470703 284.238281 L 2127.563477 387.584198 L 2129.844727 387.584198 L 2186.937256 284.238281 L 2234.687744 284.238281 L 2149.785645 430.702057 L 2149.785645 517.85022 L 2107.622314 517.85022 L 2107.622314 430.702057 L 2022.720337 284.238281 Z"/>
        </g>
    </g>
</svg>
